<?xml version="1.0" encoding="utf-8"?>
<!-- Generator: Adobe Illustrator 19.0.0, SVG Export Plug-In . SVG Version: 6.00 Build 0)  -->
<svg version="1.1" id="Layer_1" xmlns="http://www.w3.org/2000/svg" xmlns:xlink="http://www.w3.org/1999/xlink" x="0px" y="0px"
	 viewBox="131 -131 512 512" style="enable-background:new 131 -131 512 512;" xml:space="preserve">
<g id="XMLID_1_">
	<path id="XMLID_5_" d="M354.4,157.2h-63.7l96-96l96,96H419v159.7h-63.7V157.2H354.4z M514.8,29c0-14.2-29.1-96-143.9-96
		C293.8-66.9,227-5.6,227,61.3c-62.9,0-96,48.8-96,96c0,48.8,32.2,96,96,96h96v-41.7h-96c-51.9,0-54.3-45.6-54.3-54.3
		c0-5.5,1.6-54.3,54.3-54.3h41.7V61.3c0-44,49.5-86.5,102.2-86.5c81.8,0,99.9,49.5,102.2,57.4v38.5h41.7c26,0,86.5,7.1,86.5,70
		c0,66.9-71.6,70-86.5,70h-63.7v41.7h63.7c66.9,0,128.2-37,128.2-111.7C642.2,62.9,580.9,29,514.8,29z"/>
</g>
</svg>
